<?xml version="1.0" encoding="UTF-8"?>
<svg id="Layer_1" xmlns="http://www.w3.org/2000/svg" xmlns:xlink="http://www.w3.org/1999/xlink" version="1.1" viewBox="0 0 595.28 841.89">
  <!-- Generator: Adobe Illustrator 30.0.0, SVG Export Plug-In . SVG Version: 2.1.1 Build 123)  -->
  <defs>
    <style>
      .st0 {
        fill: #f7a7b7;
      }

      .st1 {
        fill: url(#linear-gradient);
      }

      .st2 {
        fill: #fff;
      }
    </style>
    <linearGradient id="linear-gradient" x1="292.88" y1="-9.97" x2="302.53" y2="863.69" gradientUnits="userSpaceOnUse">
      <stop offset="0" stop-color="#fbd1da"/>
      <stop offset=".02" stop-color="#facbd5"/>
      <stop offset=".16" stop-color="#f7abba"/>
      <stop offset=".29" stop-color="#f493a7"/>
      <stop offset=".41" stop-color="#f3859b"/>
      <stop offset=".52" stop-color="#f38198"/>
      <stop offset=".61" stop-color="#f3889e"/>
      <stop offset=".76" stop-color="#f59eaf"/>
      <stop offset=".93" stop-color="#f8c1cc"/>
      <stop offset="1" stop-color="#fad1d9"/>
    </linearGradient>
  </defs>
  <path class="st1" d="M199.46,37.66v766.57h196.36V37.66h-196.36ZM379.26,724.19h-163.24v-163.23h163.24v163.23ZM379.26,552.55h-163.24v-163.23h163.24v163.23ZM379.26,380.91h-163.24v-163.23h163.24v163.23ZM379.26,209.27h-163.24V46.04h163.24v163.23Z"/>
  <g>
    <g>
      <path class="st2" d="M291.44,741.85c-.55,0-1-.45-1-1v-26.24c0-.55.45-1,1-1h6.02c1.18,0,2.2.19,3.02.57.86.4,1.56,1,2.06,1.79.46.73.8,1.63.99,2.67.18.97.27,2.11.27,3.36v.55c0,1.76-.16,3.29-.47,4.56-.34,1.4-.99,2.49-1.91,3.24-.94.76-2.22,1.15-3.82,1.15h-1.16v9.35c0,.55-.45,1-1,1h-4ZM296.8,726.2c.29,0,.51-.05.59-.14.05-.05.21-.26.3-.92.09-.64.13-1.53.13-2.63v-.51c0-1.3-.12-2.29-.32-2.92-.08-.24-.17-.41-.67-.41h-.4v7.53h.37Z"/>
      <path class="st0" d="M297.46,714.61c1.04,0,1.91.16,2.6.48.69.32,1.23.79,1.63,1.42.4.63.68,1.4.85,2.32.17.92.25,1.98.25,3.18v.55c0,1.69-.15,3.13-.44,4.32s-.82,2.09-1.57,2.71c-.76.62-1.82.92-3.19.92h-2.16v10.35h-4v-26.24h6.02M295.43,727.2h1.37c.59,0,1.02-.15,1.31-.45s.48-.79.57-1.48c.09-.69.14-1.61.14-2.77v-.51c0-1.42-.13-2.5-.37-3.23-.24-.73-.78-1.1-1.62-1.1h-1.4v9.53M297.46,712.61h-6.02c-1.1,0-2,.9-2,2v26.24c0,1.1.9,2,2,2h4c1.1,0,2-.9,2-2v-8.35h.16c1.84,0,3.34-.46,4.45-1.37,1.1-.89,1.85-2.16,2.25-3.78.33-1.34.5-2.95.5-4.79v-.55c0-1.32-.1-2.51-.29-3.54-.21-1.17-.59-2.19-1.13-3.03-.61-.95-1.44-1.68-2.48-2.16-.95-.44-2.11-.66-3.44-.66h0Z"/>
    </g>
    <g>
      <path class="st2" d="M315.43,741.85c-.35,0-.68-.18-.86-.49-.15-.26-.18-.52-.21-1.25-.01-.47-.03-1.06-.04-1.78-.02-.72-.02-1.49-.03-2.33,0-.83,0-1.64,0-2.44v-2.12c0-.86-.07-1.29-.13-1.51-.02-.09-.07-.2-.13-.23-.08-.04-.32-.14-.89-.17h-.23s0,11.31,0,11.31c0,.55-.45,1-1,1h-4c-.55,0-1-.45-1-1v-26.24c0-.55.45-1,1-1h6.6c1.62,0,2.83.33,3.69,1.02.86.68,1.43,1.67,1.69,2.94.23,1.1.34,2.44.34,3.99,0,1.67-.17,2.97-.53,3.97-.19.55-.49,1.02-.88,1.41.36.39.65.91.87,1.55.22.64.37,1.42.46,2.38.09.91.13,2.03.13,3.32,0,0,0,1.83,0,2.44s.01,1.23.02,1.85c0,.61.02,1.12.04,1.55.01.26.02.45.04.55.08.29.03.59-.14.84-.19.27-.49.43-.82.43h-4ZM313.51,724.36c.28,0,.42-.05.46-.08h0s.11-.13.19-.61c.09-.53.13-1.33.13-2.38v-.16c0-.86-.04-1.52-.12-1.96-.05-.3-.13-.38-.13-.38,0,0-.18-.11-.76-.11h-.36v5.68h.59Z"/>
      <path class="st0" d="M314.51,714.62c1.37,0,2.4.27,3.07.8s1.12,1.32,1.33,2.36c.21,1.03.32,2.3.32,3.79s-.16,2.75-.47,3.63c-.31.88-.95,1.47-1.92,1.77.46.08.84.27,1.15.56.31.29.56.72.75,1.28s.33,1.28.41,2.16.13,1.96.13,3.23v.83c0,.46,0,1,0,1.62,0,.62.01,1.24.02,1.86s.02,1.14.04,1.58c.02.44.04.7.07.78h-4s-.05-.31-.07-.77c-.01-.46-.03-1.05-.04-1.77-.01-.72-.02-1.49-.03-2.31,0-.82,0-1.64,0-2.44v-2.12c0-.79-.06-1.38-.17-1.78-.11-.4-.32-.68-.63-.84-.3-.16-.74-.25-1.3-.28l-1.28-.07v12.39h-4v-26.24h6.6M311.92,725.36h1.6c.49,0,.86-.11,1.11-.33.25-.22.43-.62.52-1.21s.14-1.43.14-2.53v-.16c0-.92-.04-1.63-.13-2.13-.09-.5-.28-.84-.56-1.03-.28-.19-.72-.28-1.32-.28h-1.36v7.68M314.51,712.62h-6.6c-1.1,0-2,.9-2,2v26.24c0,1.1.9,2,2,2h4c.77,0,1.43-.43,1.77-1.06.02.03.03.06.05.09.36.6,1.01.97,1.71.97h4c.66,0,1.27-.32,1.64-.86.32-.47.43-1.04.3-1.59,0-.1-.02-.23-.03-.42-.02-.42-.03-.93-.04-1.52,0-.61-.02-1.22-.02-1.84,0-.62,0-1.15,0-1.6v-.83c0-1.33-.05-2.48-.14-3.42-.1-1.04-.27-1.89-.51-2.61-.15-.44-.33-.84-.55-1.19.23-.33.41-.7.56-1.11.39-1.11.59-2.51.59-4.3,0-1.64-.12-3.01-.36-4.19-.31-1.5-1-2.68-2.05-3.52-1.05-.83-2.46-1.24-4.31-1.24h0Z"/>
    </g>
    <g>
      <rect class="st2" x="322.77" y="713.62" width="6" height="28.24" rx="1" ry="1"/>
      <path class="st0" d="M327.77,714.62v26.24h-4v-26.24h4M327.77,712.62h-4c-1.1,0-2,.9-2,2v26.24c0,1.1.9,2,2,2h4c1.1,0,2-.9,2-2v-26.24c0-1.1-.9-2-2-2h0Z"/>
    </g>
    <g>
      <path class="st2" d="M337.12,742.16c-1.24,0-2.3-.21-3.16-.61-.9-.42-1.62-1.05-2.15-1.87-.49-.77-.84-1.7-1.04-2.77-.19-1.01-.29-2.16-.29-3.43v-2.34c0-.55.45-1,1-1h3.79c.55,0,1,.45,1,1v2.64c0,1.6.16,2.34.29,2.68.07.18.14.29.48.29.27,0,.38-.05.4-.07.01-.01.12-.12.18-.51.07-.43.11-1.03.11-1.76,0-.83-.17-1.57-.51-2.25-.37-.72-.94-1.5-1.7-2.29l-1.93-1.99c-.57-.6-1.1-1.24-1.56-1.9-.49-.7-.87-1.49-1.16-2.35-.29-.87-.43-1.84-.43-2.9,0-1.49.19-2.78.56-3.84.42-1.17,1.13-2.08,2.14-2.69.96-.59,2.25-.88,3.83-.88,1.2,0,2.22.2,3.03.58.85.41,1.53,1.01,2.02,1.79.45.73.77,1.6.95,2.61.17.95.25,2.03.25,3.23v1.62c0,.55-.45,1-1,1h-3.71l1.51,1.63c1.1,1.18,1.97,2.43,2.58,3.72.64,1.33.96,2.83.96,4.46s-.19,3.1-.55,4.26c-.41,1.28-1.11,2.27-2.09,2.95-.96.66-2.25,1-3.82,1ZM336.96,718.71c-.2,0-.35.03-.43.09-.09.06-.15.21-.18.32-.09.29-.13.69-.13,1.2,0,.43.05.8.15,1.09.1.29.27.58.48.86.2.25.43.53.7.83v-1.82c0-.74-.04-1.35-.11-1.83-.07-.46-.19-.63-.24-.69-.03-.03-.12-.05-.24-.05Z"/>
      <path class="st0" d="M336.99,714.31c1.05,0,1.92.16,2.6.48.68.32,1.21.8,1.6,1.42.38.62.65,1.38.81,2.27.16.89.24,1.91.24,3.05v1.62h-3.68v-1.88c0-.8-.04-1.46-.13-1.98s-.24-.92-.47-1.19c-.23-.26-.56-.4-1-.4s-.76.09-1.01.28c-.26.18-.44.47-.56.85s-.17.88-.17,1.48c0,.55.07,1.02.21,1.42.14.4.35.78.64,1.15s.65.78,1.07,1.24l2.16,2.34c1.03,1.11,1.84,2.27,2.41,3.47s.86,2.54.86,4.03c0,1.57-.17,2.89-.51,3.96-.34,1.07-.9,1.88-1.7,2.42-.8.55-1.88.82-3.25.82-1.09,0-2.01-.17-2.74-.51-.73-.34-1.31-.84-1.73-1.51-.42-.66-.72-1.47-.9-2.41-.18-.95-.27-2.03-.27-3.24v-2.34h3.79v2.64c0,1.41.12,2.42.36,3.04s.71.92,1.42.92c.48,0,.84-.11,1.08-.34.24-.22.41-.58.49-1.07s.13-1.14.13-1.93c0-.98-.21-1.88-.62-2.7-.41-.81-1.04-1.66-1.87-2.53l-1.94-2c-.54-.56-1.02-1.15-1.45-1.77s-.78-1.32-1.03-2.09-.38-1.63-.38-2.59c0-1.38.17-2.55.51-3.5.34-.95.91-1.68,1.71-2.17.81-.49,1.91-.74,3.31-.74M336.99,712.31c-1.79,0-3.22.34-4.35,1.03-1.2.74-2.06,1.81-2.56,3.21-.41,1.16-.62,2.57-.62,4.17,0,1.16.16,2.24.48,3.21.31.95.74,1.83,1.28,2.61.49.71,1.05,1.39,1.66,2.03l.56.58h-1.95c-1.1,0-2,.9-2,2v2.34c0,1.33.1,2.55.3,3.61.23,1.2.62,2.25,1.18,3.12.63.98,1.49,1.73,2.56,2.24,1,.47,2.2.7,3.59.7,1.78,0,3.25-.39,4.38-1.17,1.17-.8,2-1.97,2.47-3.47.4-1.28.6-2.77.6-4.56s-.36-3.42-1.06-4.89c-.65-1.36-1.56-2.68-2.71-3.92h1.42c1.1,0,2-.9,2-2v-1.62c0-1.26-.09-2.4-.27-3.4-.2-1.13-.57-2.13-1.08-2.96-.59-.95-1.41-1.68-2.44-2.17-.95-.45-2.11-.68-3.46-.68h0Z"/>
    </g>
    <g>
      <path class="st2" d="M359.85,741.85c-.55,0-1-.45-1-1v-7.32l-1.4,7.39c-.09.47-.5.81-.98.81h-3.18c-.48,0-.89-.34-.98-.81l-1.55-7.86v7.78c0,.55-.45,1-1,1h-3.53c-.55,0-1-.45-1-1v-26.24c0-.55.45-1,1-1h4.96c.48,0,.89.34.98.81l2.72,13.96,2.55-13.95c.09-.48.5-.82.98-.82h4.99c.55,0,1,.45,1,1v26.24c0,.55-.45,1-1,1h-3.56Z"/>
      <path class="st0" d="M363.41,714.62v26.24h-3.56v-9.78l.15-8.97-3.53,18.63h-3.18l-3.68-18.63.15,8.97v9.78h-3.53v-26.24h4.96l3.73,19.17,3.5-19.17h4.99M363.41,712.62h-4.99c-.97,0-1.79.69-1.97,1.64l-1.6,8.74-1.7-8.76c-.18-.94-1.01-1.62-1.96-1.62h-4.96c-1.1,0-2,.9-2,2v26.24c0,1.1.9,2,2,2h3.53c.79,0,1.47-.46,1.8-1.12.35.61,1,1,1.73,1h3.18c.68,0,1.29-.34,1.65-.88.35.6.99,1,1.73,1h3.56c1.1,0,2-.9,2-2v-26.24c0-1.1-.9-2-2-2h0Z"/>
    </g>
  </g>
  <g>
    <path class="st2" d="M248.85,750.49c-2.67,3.9-5.83,8.6-8.89,13.29l-1.48,2.27c.89.3,2.07.45,3.36.45.94,0,1.93-.1,2.91-.3,12.89-2.32,24.4-14.32,24.4-22.23,0-.55-.05-1.04-.15-1.53-1.18-5.43-11.16-7.66-18.33-7.36-8.6.35-18.52,3.56-24.9,10.47-3.06,3.36-4.2,6.62-4.2,9.28,0,.55.05,1.04.15,1.53.69,2.77,3.01,4.35,6.03,4.35.74,0,1.58-.1,2.37-.35.89-.25,2.52,2.08,1.38,2.42-.94.25-1.83.39-2.72.39-4.4,0-8.15-3.31-9.14-7.75-.15-.64-.2-1.29-.2-1.97,0-3.06,1.38-6.57,4.49-10.03,6.22-6.67,16.99-10.62,26.43-10.82,9.58-.2,18.97,2.91,20.6,10.62.15.6.2,1.23.2,1.88,0,9.29-13.14,21.24-24.55,23.22-1.23.2-2.37.3-3.46.3-2.27,0-4.15-.39-5.63-1.09-3.26,5.23-6.82,11.26-8.45,14.47-.99,1.73-1.14,2.27-1.19,2.72-.05.25-.35.35-.64.35-.49-.1-1.53-1.34-1.53-1.98,1.83-4.05,5.58-10.42,9.73-17.04-.59-.59-.99-1.28-1.14-2.02-.1-.4.15-.64.64-.69.2,0,1.04.69,1.48,1.19,2.37-3.76,4.89-7.56,7.16-10.97-.59.15-1.09.25-1.53.25-.79,0-.84-.64-.74-.84,1.38-.25,3.21-1.58,5.04-3.46,2.77-4.1,5.09-7.31,6.27-8.79.05-.1.15-.2.3-.2.64-.25,1.93,1.04,1.93,2.47-1.58,3.11-3.8,5.63-6.03,7.51Z"/>
    <path class="st2" d="M266.42,768.96c1.93-5.09,13.14-24.16,15.36-27.47.84-1.28,2.08,1.34,1.68,1.83-2.42,4.05-7.01,11.61-11.71,20.5,2.67-1.83,6.72-3.81,8.84-3.56,1.09.15,1.33,2.42,1.04,3.16-.35.69-1.38,2.87-1.73,3.85,1.53.54,7.95-2.96,10.08-4.44,1.18-.79,1.78,1.88,1.28,2.22-2.03,1.63-6.72,4.49-9.98,4.79-2.08.2-3.41-1.68-3.11-3.7.05-.39.15-1.23.94-3.01-4.3,1.48-8.4,4.4-11.12,7.36l-.1.14c-.15.15-.25.35-.44.35-.79.1-1.23-1.43-1.04-2.02Z"/>
    <path class="st2" d="M287.96,766.84c0-2.82,3.36-5.83,5.09-5.98.2,0,.39.15.49.29.05-.54.34-.94.89-.94.94,0,2.07.84,2.47,1.78,1.33.54,2.72.74,4.1.74,1.28,0,2.57-.14,3.85-.44,1.29-.35,1.73,2.08,1.04,2.32-1.33.3-2.67.45-4.05.45-1.53,0-3.06-.2-4.64-.6l-.05.1c-.15,2.37-3.21,6.67-5.93,6.67-1.97,0-3.26-2.37-3.26-4.4ZM295.37,763.72c-.44-.25-.74-.54-.99-.74-3.11,1.09-6.08,5.78-3.75,5.78,2.08,0,4.3-3.16,4.74-5.04Z"/>
    <path class="st2" d="M311.54,750.63c1.73-2.76,3.46-5.29,4.99-7.46,1.14-1.19,1.88.94,1.68,1.83-1.09,1.58-2.32,3.46-3.61,5.53,2.87-.15,5.68-.2,8.15-.2,2.72,0,5.04.05,6.57.29.05,0,.1.05.15.05,1.58.39.44,2.32.15,2.17-2.07-.2-3.75.49-4.59.6-.15.05-.25-.35-.25-.74-1.14-.05-2.27-.05-3.36-.05-2.96,0-5.73.05-8.25.15-6.57,10.72-14.57,25.19-17.24,32.55-.44,1.14-1.73.25-1.68-1.73,2.03-5.92,7.51-16.55,13.19-26.23v-.05c.44-3.7-6.22-3.7-7.26-3.76-.1,0-.15-.05-.2-.05-1.19.1-1.58-2.08-.69-2.12,3.06-.25,7.56-.54,12.25-.79ZM310.1,752.96l-4.4.29c1.18.54,2.17,1.38,2.57,2.72.59-1.04,1.23-2.03,1.83-3.01Z"/>
    <path class="st2" d="M310.65,766.69c0-2.42,1.88-4.79,4.15-5.98.3-.1.69.05.99.2l.05.05c.05-.54.34-.74.89-.74.15,0,.3.05.49.1,1.04.35,1.58.89,1.78,1.58v.05c1.04.44,3.36.59,5.98.59,4.15,0,9.04-.39,10.52-.74,1.14-.3,1.88,2.03,1.04,2.32-2.03.49-6.87.79-10.92.79-2.72,0-4.89-.15-5.93-.45-.2,2.72-2.96,6.52-6.08,6.17-1.88-.25-3.01-2.32-2.96-3.95ZM317.67,763.72c-.64-.39-1.04-.74-1.28-1.04l-.05.15-.2.15c-1.53.69-3.56,2.91-3.56,4.64,0,.45.2.74.79.74,2.08-.05,3.85-2.76,4.3-4.64Z"/>
  </g>
</svg>