<?xml version="1.0" encoding="UTF-8"?>
<svg id="Layer_1" xmlns="http://www.w3.org/2000/svg" xmlns:xlink="http://www.w3.org/1999/xlink" version="1.1" viewBox="0 0 639.18 2495.3">
  <!-- Generator: Adobe Illustrator 30.0.0, SVG Export Plug-In . SVG Version: 2.1.1 Build 123)  -->
  <defs>
    <style>
      .st0 {
        fill: #f7a7b7;
      }

      .st1 {
        fill: url(#linear-gradient);
      }

      .st2 {
        fill: #fff;
      }
    </style>
    <linearGradient id="linear-gradient" x1="304.11" y1="-155.05" x2="335.5" y2="2688.84" gradientUnits="userSpaceOnUse">
      <stop offset="0" stop-color="#fbd1da"/>
      <stop offset=".02" stop-color="#facbd5"/>
      <stop offset=".16" stop-color="#f7abba"/>
      <stop offset=".29" stop-color="#f493a7"/>
      <stop offset=".41" stop-color="#f3859b"/>
      <stop offset=".52" stop-color="#f38198"/>
      <stop offset=".61" stop-color="#f3889e"/>
      <stop offset=".76" stop-color="#f59eaf"/>
      <stop offset=".93" stop-color="#f8c1cc"/>
      <stop offset="1" stop-color="#fad1d9"/>
    </linearGradient>
  </defs>
  <path class="st1" d="M0,0v2495.3h639.18V0H0ZM585.27,2234.76H53.9V27.28h531.37v2207.48Z"/>
  <g>
    <g>
      <path class="st2" d="M299.4,2289.98c-.55,0-1-.45-1-1v-85.41c0-.55.45-1,1-1h19.6c3.53,0,6.51.55,8.89,1.65,2.42,1.11,4.35,2.79,5.74,4.98,1.36,2.14,2.33,4.8,2.91,7.9.56,3.04.84,6.59.84,10.54v1.79c0,5.55-.49,10.36-1.46,14.29-1,4.06-2.84,7.21-5.46,9.34-2.63,2.15-6.34,3.23-11.02,3.23h-6.04v32.68c0,.55-.45,1-1,1h-13ZM316.87,2243.57c1.62,0,2.81-.39,3.55-1.15.78-.81,1.32-2.25,1.6-4.27.3-2.19.45-5.17.45-8.87v-1.65c-.03-4.49-.42-7.93-1.16-10.2-.64-1.96-2.02-2.88-4.34-2.88h-3.56v29.01h3.46Z"/>
      <path class="st0" d="M319,2203.57c3.4,0,6.22.52,8.47,1.55s4.02,2.57,5.31,4.61c1.29,2.04,2.22,4.55,2.77,7.55.55,2.99.82,6.45.82,10.36v1.8c0,5.5-.48,10.18-1.43,14.05-.95,3.87-2.66,6.8-5.12,8.81-2.46,2.01-5.92,3.01-10.38,3.01h-7.04v33.68h-13v-85.41h19.6M312.4,2244.57h4.46c1.91,0,3.33-.49,4.27-1.46s1.56-2.58,1.87-4.83c.31-2.25.46-5.25.46-9v-1.65c-.03-4.63-.44-8.13-1.21-10.51-.78-2.38-2.54-3.57-5.29-3.57h-4.56v31.01M319,2201.57h-19.6c-1.1,0-2,.9-2,2v85.41c0,1.1.9,2,2,2h13c1.1,0,2-.9,2-2v-31.68h5.04c4.92,0,8.84-1.16,11.65-3.46,2.79-2.28,4.74-5.6,5.8-9.88.99-4,1.49-8.89,1.49-14.53v-1.8c0-4.02-.29-7.62-.86-10.72-.59-3.23-1.62-6.01-3.04-8.26-1.5-2.36-3.57-4.16-6.17-5.35-2.5-1.15-5.63-1.74-9.3-1.74h0ZM314.4,2215.57h2.56c2.35,0,3.02,1.05,3.39,2.19.71,2.17,1.08,5.5,1.11,9.9v1.64c0,3.64-.15,6.58-.44,8.73-.31,2.25-.89,3.26-1.32,3.71-.54.56-1.5.85-2.83.85h-2.46v-27.01h0Z"/>
    </g>
    <g>
      <path class="st2" d="M377.51,2290c-.35,0-.67-.18-.86-.48-.17-.29-.29-.63-.36-2.99-.05-1.51-.1-3.43-.15-5.76-.05-2.33-.08-4.85-.1-7.54-.02-2.69-.02-5.33-.02-7.94v-6.91c0-2.45-.17-4.31-.52-5.53-.3-1.05-.8-1.74-1.54-2.13-.85-.45-2.14-.72-3.83-.81l-3.12-.18v39.26c0,.55-.45,1-1,1h-13c-.55,0-1-.45-1-1v-85.41c0-.55.45-1,1-1h21.5c4.67,0,8.25.96,10.62,2.84,2.38,1.89,3.96,4.66,4.7,8.25.71,3.41,1.06,7.63,1.06,12.53s-.53,9.19-1.59,12.15c-.83,2.33-2.31,4.11-4.41,5.31.6.33,1.16.73,1.66,1.2,1.12,1.06,2.02,2.6,2.69,4.58.64,1.89,1.1,4.34,1.38,7.26.28,2.88.42,6.45.42,10.6v2.72c0,1.49,0,3.24.02,5.26.02,2.02.04,4.03.07,6.03.03,1.98.08,3.7.14,5.11.08,1.79.17,2.18.19,2.24.09.3.04.65-.15.91-.19.25-.48.43-.79.43h-13ZM371.25,2237.58c1.33,0,2.33-.28,2.96-.82.63-.54,1.1-1.7,1.37-3.33.3-1.85.45-4.57.45-8.09v-.53c0-2.93-.14-5.21-.42-6.76-.24-1.33-.71-2.24-1.39-2.69-.75-.5-2.01-.75-3.74-.75h-3.42v22.99h4.19Z"/>
      <path class="st0" d="M374.5,2203.59c4.46,0,7.8.87,10,2.62,2.2,1.75,3.65,4.3,4.34,7.67.7,3.36,1.04,7.47,1.04,12.33s-.51,8.95-1.53,11.82c-1.02,2.86-3.1,4.78-6.24,5.75,1.49.26,2.73.87,3.74,1.82,1,.95,1.81,2.35,2.43,4.17.61,1.83,1.06,4.17,1.33,7.04.27,2.86.41,6.36.41,10.51v2.72c0,1.49,0,3.24.02,5.27s.04,4.04.07,6.04.08,3.72.15,5.14c.06,1.42.15,2.26.24,2.52h-13c-.1-.16-.17-.99-.22-2.5-.05-1.5-.1-3.42-.15-5.75s-.08-4.84-.1-7.52-.02-5.33-.02-7.93v-6.91c0-2.56-.19-4.49-.56-5.8-.37-1.31-1.05-2.22-2.04-2.74-.99-.52-2.4-.82-4.25-.92l-4.17-.24v40.32h-13v-85.41h21.5M366.06,2238.58h5.19c1.59,0,2.79-.36,3.62-1.07.82-.71,1.39-2.02,1.7-3.93.31-1.91.46-4.66.46-8.25v-.53c0-3.01-.15-5.32-.44-6.94-.29-1.62-.9-2.73-1.82-3.35-.92-.61-2.35-.92-4.29-.92h-4.42v24.99M374.5,2201.59h-21.5c-1.1,0-2,.9-2,2v85.41c0,1.1.9,2,2,2h13c1.1,0,2-.9,2-2v-38.21l2.06.12c1.94.1,2.93.43,3.43.7.31.16.75.5,1.04,1.52.32,1.13.48,2.89.48,5.25v6.91c0,2.61,0,5.26.02,7.95.02,2.68.05,5.22.1,7.55.05,2.34.1,4.26.15,5.77.08,2.39.19,2.94.5,3.46.36.6,1.01.97,1.71.97h13c.66,0,1.27-.32,1.64-.86.35-.51.45-1.15.26-1.74-.02-.11-.09-.57-.15-2.02-.06-1.4-.11-3.11-.14-5.09-.03-2-.06-4.01-.07-6.03-.02-2.02-.02-3.77-.02-5.25v-2.72c0-4.18-.14-7.78-.42-10.7-.29-3-.77-5.52-1.43-7.48-.72-2.13-1.71-3.81-2.94-4.98-.17-.17-.35-.32-.54-.47,1.63-1.26,2.81-2.92,3.54-4.98,1.11-3.11,1.64-7.19,1.64-12.49,0-4.97-.36-9.25-1.08-12.73-.79-3.82-2.49-6.79-5.06-8.83-2.59-2.06-6.26-3.05-11.24-3.05h0ZM368.06,2215.59h2.42c2.01,0,2.86.37,3.19.59.56.37.83,1.31.96,2.04.27,1.49.41,3.71.41,6.58v.53c0,3.47-.15,6.14-.44,7.93-.31,1.93-.82,2.56-1.03,2.73-.44.38-1.24.58-2.31.58h-3.19v-20.99h0Z"/>
    </g>
    <g>
      <rect class="st2" x="403.66" y="2202.59" width="15" height="87.41" rx="1" ry="1"/>
      <path class="st0" d="M417.66,2203.59v85.41h-13v-85.41h13M417.66,2201.59h-13c-1.1,0-2,.9-2,2v85.41c0,1.1.9,2,2,2h13c1.1,0,2-.9,2-2v-85.41c0-1.1-.9-2-2-2h0Z"/>
    </g>
    <g>
      <path class="st2" d="M448.12,2290.99c-3.69,0-6.83-.59-9.33-1.77-2.54-1.19-4.57-2.96-6.05-5.27-1.44-2.25-2.47-5.01-3.08-8.21-.59-3.14-.89-6.75-.89-10.74v-7.62c0-.55.45-1,1-1h12.33c.55,0,1,.45,1,1v8.59c0,4.45.37,7.66,1.1,9.54.63,1.62,1.79,2.37,3.68,2.37,1.29,0,2.24-.28,2.84-.83.62-.57,1.06-1.56,1.29-2.93.26-1.54.4-3.6.4-6.11,0-3.03-.64-5.83-1.91-8.33-1.29-2.55-3.29-5.25-5.92-8.01l-6.3-6.5c-1.78-1.84-3.41-3.83-4.84-5.9-1.46-2.11-2.62-4.49-3.47-7.07-.85-2.6-1.29-5.53-1.29-8.73,0-4.59.57-8.54,1.71-11.74,1.17-3.31,3.19-5.86,6-7.58,2.77-1.69,6.57-2.55,11.29-2.55,3.56,0,6.56.56,8.9,1.67,2.38,1.13,4.27,2.81,5.62,4.99,1.31,2.12,2.24,4.72,2.78,7.72.53,2.94.79,6.34.79,10.1v5.29c0,.55-.45,1-1,1h-11.99c-.55,0-1-.45-1-1v-6.11c0-2.52-.13-4.64-.4-6.3-.24-1.52-.68-2.65-1.3-3.36-.55-.63-1.37-.94-2.5-.94s-2.06.24-2.72.71c-.66.47-1.13,1.2-1.44,2.24-.34,1.15-.52,2.67-.52,4.54,0,1.66.21,3.1.62,4.28.42,1.19,1.07,2.35,1.93,3.45.92,1.17,2.08,2.51,3.44,3.96l7.04,7.62c3.41,3.68,6.12,7.56,8.03,11.55,1.93,4.03,2.91,8.59,2.91,13.53s-.57,9.62-1.7,13.19c-1.16,3.68-3.15,6.51-5.92,8.41-2.75,1.89-6.5,2.84-11.14,2.84Z"/>
      <path class="st0" d="M447.68,2202.6c3.43,0,6.25.53,8.47,1.58s3.95,2.59,5.19,4.61c1.25,2.02,2.13,4.48,2.64,7.38s.78,6.2.78,9.92v5.29h-11.99v-6.11c0-2.59-.14-4.74-.41-6.45-.27-1.71-.78-3-1.53-3.86-.74-.86-1.83-1.29-3.25-1.29s-2.46.3-3.3.9c-.84.6-1.45,1.52-1.82,2.77s-.56,2.85-.56,4.83c0,1.78.23,3.32.68,4.61.45,1.29,1.15,2.54,2.09,3.74s2.1,2.54,3.49,4.03l7.04,7.62c3.36,3.62,5.98,7.39,7.86,11.31,1.88,3.91,2.81,8.28,2.81,13.1,0,5.11-.55,9.41-1.65,12.88-1.1,3.48-2.94,6.11-5.53,7.89-2.59,1.78-6.11,2.67-10.58,2.67-3.56,0-6.53-.56-8.9-1.67s-4.25-2.75-5.63-4.9c-1.37-2.15-2.35-4.77-2.94-7.86-.58-3.09-.87-6.61-.87-10.55v-7.62h12.33v8.59c0,4.59.39,7.89,1.16,9.9.78,2.01,2.31,3.01,4.61,3.01,1.55,0,2.73-.36,3.52-1.09.79-.73,1.33-1.89,1.6-3.49.27-1.6.41-3.7.41-6.28,0-3.2-.67-6.13-2.01-8.78-1.34-2.65-3.37-5.4-6.09-8.25l-6.31-6.5c-1.75-1.81-3.32-3.74-4.73-5.77s-2.52-4.31-3.35-6.82c-.82-2.51-1.24-5.31-1.24-8.42,0-4.5.55-8.3,1.65-11.4,1.1-3.11,2.96-5.46,5.58-7.06s6.21-2.4,10.77-2.4M447.68,2200.6c-4.91,0-8.89.91-11.82,2.7-3.01,1.84-5.17,4.56-6.42,8.1-1.17,3.31-1.76,7.37-1.76,12.07,0,3.3.45,6.35,1.34,9.04.88,2.68,2.09,5.14,3.6,7.33,1.46,2.12,3.12,4.15,4.94,6.03l6.31,6.51c2.56,2.68,4.49,5.29,5.74,7.76,1.19,2.36,1.8,5.01,1.8,7.88,0,2.46-.13,4.46-.38,5.95-.19,1.13-.53,1.95-.98,2.36-.51.47-1.46.56-2.17.56-1.47,0-2.27-.5-2.74-1.73-.47-1.21-1.03-3.79-1.03-9.18v-8.59c0-1.1-.9-2-2-2h-12.33c-1.1,0-2,.9-2,2v7.62c0,4.05.31,7.73.91,10.92.63,3.33,1.71,6.21,3.22,8.57,1.58,2.46,3.75,4.36,6.46,5.63,2.63,1.24,5.92,1.86,9.75,1.86,4.86,0,8.8-1.02,11.71-3.02,2.95-2.03,5.07-5.03,6.31-8.93,1.16-3.66,1.74-8.19,1.74-13.49s-1.01-9.8-3.01-13.97c-1.95-4.08-4.71-8.05-8.2-11.8l-7.03-7.61c-1.35-1.45-2.49-2.76-3.39-3.9-.8-1.02-1.39-2.08-1.77-3.16-.38-1.08-.57-2.4-.57-3.95,0-1.77.16-3.2.47-4.26.24-.81.59-1.37,1.06-1.71.49-.35,1.21-.53,2.14-.53,1.1,0,1.52.34,1.74.6.34.39.8,1.2,1.06,2.86.26,1.6.39,3.67.39,6.14v6.11c0,1.1.9,2,2,2h11.99c1.1,0,2-.9,2-2v-5.29c0-3.82-.27-7.28-.81-10.28-.56-3.13-1.54-5.85-2.91-8.07-1.45-2.35-3.48-4.15-6.04-5.37-2.48-1.17-5.61-1.77-9.33-1.77h0Z"/>
    </g>
    <g>
      <path class="st2" d="M522.08,2290c-.55,0-1-.45-1-1v-31.83l.29-17.55-9.32,49.18c-.09.47-.5.81-.98.81h-10.34c-.48,0-.89-.34-.98-.81l-9.82-49.69.3,18.04v31.85c0,.55-.45,1-1,1h-11.5c-.55,0-1-.45-1-1v-85.41c0-.55.45-1,1-1h16.16c.48,0,.89.34.98.81l11.12,57.2,10.45-57.19c.09-.48.5-.82.98-.82h16.26c.55,0,1,.45,1,1v85.41c0,.55-.45,1-1,1h-11.6Z"/>
      <path class="st0" d="M533.68,2203.59v85.41h-11.6v-31.83l.49-29.21-11.5,60.66h-10.34l-11.99-60.66.49,29.21v31.83h-11.5v-85.41h16.16l12.13,62.4,11.4-62.4h16.26M533.68,2201.59h-16.26c-.97,0-1.79.69-1.97,1.64l-9.5,51.97-10.11-51.99c-.18-.94-1.01-1.62-1.96-1.62h-16.16c-1.1,0-2,.9-2,2v85.41c0,1.1.9,2,2,2h11.5c1.1,0,2-.9,2-2v-31.83l-.11-6.9,7.65,38.73c.19.94,1.01,1.61,1.96,1.61h10.34c.96,0,1.79-.68,1.96-1.63l7.15-37.7-.1,5.85v31.87c0,1.1.9,2,2,2h11.6c1.1,0,2-.9,2-2v-85.41c0-1.1-.9-2-2-2h0Z"/>
    </g>
  </g>
  <g>
    <path class="st2" d="M160.78,2320.36c-8.69,12.7-18.98,27.98-28.95,43.25l-4.82,7.4c2.89.97,6.75,1.45,10.93,1.45,3.06,0,6.27-.33,9.49-.97,41.97-7.55,79.44-46.62,79.44-72.35,0-1.78-.16-3.38-.48-4.99-3.86-17.69-36.34-24.93-59.65-23.96-27.98,1.13-60.3,11.57-81.05,34.09-9.97,10.93-13.67,21.54-13.67,30.22,0,1.78.16,3.38.48,4.99,2.25,9.01,9.81,14.15,19.62,14.15,2.41,0,5.15-.33,7.72-1.13,2.89-.81,8.2,6.76,4.5,7.88-3.05.8-5.94,1.28-8.84,1.28-14.31,0-26.53-10.78-29.75-25.24-.48-2.09-.64-4.19-.64-6.43,0-9.98,4.5-21.39,14.63-32.65,20.26-21.71,55.32-34.57,86.03-35.21,31.19-.64,61.75,9.48,67.06,34.57.48,1.94.64,4.02.64,6.11,0,30.23-42.77,69.14-79.92,75.57-4.02.64-7.72.97-11.25.97-7.4,0-13.51-1.28-18.33-3.54-10.61,17.03-22.19,36.66-27.5,47.11-3.21,5.63-3.7,7.4-3.86,8.85-.16.8-1.13,1.13-2.09,1.13-1.61-.33-4.99-4.35-4.99-6.44,5.95-13.18,18.17-33.92,31.68-55.48-1.92-1.92-3.21-4.18-3.7-6.59-.32-1.3.48-2.09,2.09-2.25.64,0,3.38,2.25,4.82,3.86,7.72-12.23,15.91-24.61,23.31-35.7-1.93.48-3.54.8-4.98.8-2.57,0-2.74-2.08-2.42-2.72,4.5-.81,10.45-5.15,16.41-11.26,9-13.34,16.56-23.8,20.42-28.62.16-.33.48-.64.96-.64,2.09-.81,6.27,3.38,6.27,8.04-5.15,10.13-12.38,18.33-19.61,24.44Z"/>
    <path class="st2" d="M217.95,2380.5c6.27-16.56,42.77-78.64,50.01-89.41,2.74-4.18,6.76,4.35,5.47,5.96-7.88,13.18-22.83,37.79-38.11,66.74,8.69-5.96,21.87-12.39,28.79-11.59,3.54.48,4.34,7.88,3.38,10.29-1.13,2.25-4.5,9.34-5.63,12.54,4.98,1.77,25.89-9.65,32.8-14.47,3.86-2.58,5.79,6.11,4.18,7.24-6.59,5.3-21.87,14.62-32.48,15.59-6.76.64-11.1-5.47-10.13-12.06.16-1.28.48-4.02,3.06-9.81-13.99,4.82-27.34,14.31-36.18,23.96l-.32.47c-.48.48-.81,1.13-1.45,1.13-2.57.33-4.02-4.66-3.38-6.59Z"/>
    <path class="st2" d="M288.09,2373.59c0-9.17,10.93-18.97,16.56-19.46.64,0,1.28.48,1.61.96.16-1.77,1.12-3.05,2.89-3.05,3.05,0,6.75,2.74,8.04,5.79,4.34,1.77,8.84,2.41,13.35,2.41,4.18,0,8.36-.47,12.54-1.44,4.18-1.13,5.63,6.76,3.38,7.55-4.34.97-8.68,1.45-13.18,1.45-4.98,0-9.97-.64-15.12-1.94l-.16.33c-.48,7.71-10.45,21.71-19.3,21.71-6.43,0-10.61-7.72-10.61-14.31ZM312.21,2363.45c-1.45-.8-2.41-1.77-3.21-2.41-10.13,3.54-19.78,18.81-12.22,18.81,6.76,0,13.99-10.29,15.44-16.41Z"/>
    <path class="st2" d="M364.82,2320.83c5.63-8.99,11.26-17.2,16.24-24.27,3.7-3.86,6.11,3.05,5.47,5.94-3.54,5.15-7.55,11.26-11.74,18.02,9.33-.48,18.49-.64,26.53-.64,8.84,0,16.4.16,21.39.96.16,0,.32.17.48.17,5.15,1.28,1.45,7.55.48,7.07-6.75-.64-12.22,1.61-14.95,1.94-.48.16-.81-1.13-.81-2.42-3.7-.16-7.4-.16-10.93-.16-9.65,0-18.65.16-26.85.48-21.39,34.89-47.44,82-56.12,105.96-1.45,3.71-5.63.81-5.47-5.63,6.6-19.29,24.44-53.86,42.94-85.38v-.16c1.45-12.06-20.26-12.06-23.64-12.23-.32,0-.48-.16-.64-.16-3.86.33-5.15-6.76-2.25-6.91,9.97-.8,24.6-1.77,39.87-2.58ZM360.16,2328.4l-14.31.96c3.86,1.77,7.08,4.5,8.36,8.85,1.93-3.38,4.02-6.6,5.95-9.81Z"/>
    <path class="st2" d="M361.94,2373.1c0-7.88,6.11-15.59,13.51-19.46.96-.33,2.25.16,3.21.64l.16.16c.16-1.77,1.12-2.41,2.89-2.41.48,0,.96.16,1.6.33,3.38,1.13,5.15,2.89,5.79,5.15v.16c3.37,1.44,10.93,1.92,19.46,1.92,13.51,0,29.43-1.28,34.24-2.41,3.7-.97,6.11,6.6,3.38,7.55-6.59,1.61-22.35,2.58-35.53,2.58-8.84,0-15.92-.48-19.3-1.45-.64,8.85-9.64,21.22-19.78,20.1-6.11-.8-9.81-7.55-9.64-12.86ZM384.77,2363.45c-2.09-1.28-3.37-2.41-4.18-3.38l-.16.48-.64.48c-4.99,2.25-11.58,9.48-11.58,15.11,0,1.45.65,2.41,2.57,2.41,6.76-.16,12.54-8.99,13.99-15.11Z"/>
  </g>
</svg>