<svg xmlns="http://www.w3.org/2000/svg" xmlns:xlink="http://www.w3.org/1999/xlink" id="Layer_1" version="1.1" viewBox="0 0 600 1800"><defs><mask id="holes"><rect width="100%" height="100%" fill="#fff"/><rect width="500" height="375" x="50" y="50" fill="#000"/><rect width="500" height="375" x="50" y="475" fill="#000"/><rect width="500" height="375" x="50" y="900" fill="#000"/><rect width="500" height="375" x="50" y="1325" fill="#000"/></mask><style>.st0{fill:#f7a7b7}.st1{fill:url(#linear-gradient)}.st2{fill:#fff}</style><linearGradient id="linear-gradient" x1="302.44" x2="297.58" y1="1809.82" y2="-1.71" gradientUnits="userSpaceOnUse"><stop offset="0" stop-color="#fbd1da"/><stop offset=".02" stop-color="#facbd5"/><stop offset=".16" stop-color="#f7abba"/><stop offset=".29" stop-color="#f493a7"/><stop offset=".41" stop-color="#f3859b"/><stop offset=".52" stop-color="#f38198"/><stop offset=".61" stop-color="#f3889e"/><stop offset=".76" stop-color="#f59eaf"/><stop offset=".93" stop-color="#f8c1cc"/><stop offset="1" stop-color="#fad1d9"/></linearGradient></defs><path d="M0,0v1800h600V0H0ZM550,1700H50v-375h500v375ZM550,1275H50v-375h500v375ZM550,850H50v-375h500v375ZM550,425H50V50h500v375Z" class="st1"/><g><g><path d="M366.05,1663.53c-.55,0-1-.45-1-1v-61.61c0-.55.45-1,1-1h14.14c2.58,0,4.78.41,6.53,1.21,1.79.82,3.23,2.07,4.26,3.7,1,1.57,1.72,3.52,2.13,5.8.41,2.21.61,4.78.61,7.65v1.3c0,4.03-.36,7.52-1.06,10.37-.74,2.99-2.09,5.31-4.03,6.89-1.95,1.59-4.68,2.4-8.12,2.4h-4.08v23.29c0,.55-.45,1-1,1h-9.38ZM378.65,1629.5c1.09,0,1.88-.25,2.36-.75.52-.53.89-1.54,1.08-2.92.21-1.57.32-3.71.32-6.36v-1.19c-.02-3.21-.3-5.66-.83-7.27-.43-1.3-1.31-1.88-2.86-1.88h-2.29v20.37h2.22Z" class="st2"/><path d="M380.19,1600.92c2.45,0,4.49.37,6.11,1.12s2.9,1.86,3.83,3.33,1.6,3.28,2,5.44c.4,2.16.6,4.65.6,7.47v1.3c0,3.97-.34,7.35-1.03,10.13-.69,2.79-1.92,4.91-3.69,6.35-1.77,1.45-4.27,2.17-7.49,2.17h-5.08v24.29h-9.38v-61.61h14.14M375.43,1630.5h3.22c1.38,0,2.4-.35,3.08-1.05.68-.7,1.13-1.86,1.35-3.48s.33-3.79.33-6.49v-1.19c-.02-3.34-.32-5.86-.88-7.58s-1.83-2.57-3.82-2.57h-3.29v22.37M380.19,1598.92h-14.14c-1.1,0-2,.9-2,2v61.61c0,1.1.9,2,2,2h9.38c1.1,0,2-.9,2-2v-22.29h3.08c3.68,0,6.62-.88,8.76-2.62,2.11-1.72,3.58-4.22,4.37-7.42.72-2.93,1.09-6.5,1.09-10.61v-1.3c0-2.93-.21-5.57-.63-7.83-.44-2.4-1.21-4.47-2.27-6.15-1.14-1.79-2.72-3.16-4.68-4.07-1.88-.86-4.22-1.3-6.94-1.3h0l-.02-.02ZM377.43,1610.13h1.29c1.28,0,1.67.44,1.91,1.19.49,1.51.75,3.86.78,6.97v1.18c0,2.6-.11,4.7-.31,6.22-.22,1.61-.64,2.19-.8,2.36-.35.36-1.09.44-1.64.44h-1.22v-18.37h-.01Z" class="st0"/></g><g><path d="M422.39,1663.55c-.35,0-.68-.19-.86-.49-.16-.27-.24-.58-.3-2.28-.03-1.09-.07-2.48-.11-4.16-.03-1.68-.06-3.5-.07-5.44s-.02-3.85-.02-5.73v-4.99c0-1.74-.12-3.06-.36-3.91-.19-.68-.51-1.12-.97-1.36-.58-.3-1.47-.49-2.65-.55l-1.96-.11v28.03c0,.55-.45,1-1,1h-9.38c-.55,0-1-.45-1-1v-61.61c0-.55.45-1,1-1h15.51c3.44,0,6.07.71,7.83,2.11,1.77,1.4,2.94,3.46,3.49,6.11.51,2.48.77,5.54.77,9.09s-.39,6.7-1.16,8.86c-.57,1.6-1.54,2.85-2.9,3.73.3.2.58.42.84.67.84.8,1.52,1.95,2.01,3.42.47,1.39.81,3.17,1.01,5.3.2,2.09.3,4.67.3,7.67v1.96c0,1.07,0,2.33.02,3.79.01,1.46.03,2.91.05,4.35s.06,2.66.1,3.68c.06,1.23.11,1.51.13,1.55.12.31.07.63-.12.9s-.5.41-.83.41h-9.38,0ZM417.88,1625.18c.89,0,1.55-.18,1.96-.53.28-.24.66-.83.89-2.24.21-1.32.32-3.27.32-5.79v-.39c0-2.1-.1-3.72-.3-4.83-.16-.88-.46-1.48-.88-1.76-.34-.23-1.06-.5-2.54-.5h-2.19v16.03h2.75-.01Z" class="st2"/><path d="M420.22,1600.94c3.22,0,5.62.63,7.21,1.89s2.63,3.1,3.13,5.53.75,5.39.75,8.89-.37,6.46-1.1,8.52c-.74,2.07-2.23,3.45-4.5,4.15,1.07.19,1.97.62,2.7,1.31s1.31,1.69,1.75,3.01c.44,1.32.76,3.01.96,5.08.2,2.07.3,4.59.3,7.58v1.96c0,1.07,0,2.34.02,3.8.01,1.46.03,2.91.05,4.36s.06,2.68.11,3.71.11,1.63.18,1.82h-9.38c-.07-.12-.12-.72-.16-1.8s-.07-2.47-.11-4.15-.06-3.49-.07-5.43-.02-3.84-.02-5.72v-4.99c0-1.84-.13-3.24-.4-4.18-.27-.95-.76-1.6-1.47-1.98-.71-.37-1.73-.6-3.06-.67l-3.01-.18v29.09h-9.38v-61.61h15.51M414.13,1626.18h3.75c1.14,0,2.01-.26,2.61-.77.6-.51,1-1.46,1.23-2.84.22-1.38.33-3.36.33-5.95v-.39c0-2.17-.11-3.84-.32-5.01-.21-1.17-.65-1.97-1.31-2.42-.67-.44-1.7-.67-3.1-.67h-3.19v18.03M420.22,1598.94h-15.51c-1.1,0-2,.9-2,2v61.61c0,1.1.9,2,2,2h9.38c1.1,0,2-.9,2-2v-26.97l.89.05c1.37.07,2,.31,2.25.44.08.04.31.16.48.75.15.52.33,1.58.33,3.64v4.99c0,1.88,0,3.79.02,5.74.01,1.94.04,3.77.07,5.46.04,1.69.07,3.08.11,4.17.06,1.75.14,2.26.44,2.77.36.6,1.01.97,1.71.97h9.38c.66,0,1.27-.32,1.64-.86.34-.5.44-1.12.28-1.7-.02-.1-.06-.44-.1-1.35-.05-1-.08-2.23-.1-3.65-.02-1.44-.04-2.89-.05-4.34-.01-1.45-.02-2.71-.02-3.78v-1.96c0-3.04-.1-5.65-.31-7.77-.21-2.24-.56-4.04-1.06-5.52-.53-1.58-1.27-2.85-2.2-3.75,1-.92,1.76-2.06,2.24-3.41.82-2.3,1.22-5.31,1.22-9.19,0-3.62-.27-6.75-.79-9.3-.6-2.89-1.89-5.14-3.85-6.69-1.97-1.56-4.73-2.32-8.45-2.32h0v-.03ZM416.13,1610.15h1.19c1.39,0,1.87.25,1.99.33.13.09.33.43.45,1.11.19,1.04.28,2.61.28,4.65v.39c0,2.47-.1,4.37-.31,5.63-.21,1.33-.55,1.64-.56,1.64-.1.09-.42.28-1.3.28h-1.75v-14.03h0Z" class="st0"/></g><path fill-rule="evenodd" d="M440.98,1599.94h11.38v63.61h-11.38V1599.94ZM451.36,1600.94v61.61h-9.38v-61.61h9.38Z" class="st2"/><g><path d="M473.33,1664.26c-2.7,0-5.01-.44-6.85-1.3-1.88-.88-3.39-2.2-4.48-3.9-1.06-1.65-1.82-3.68-2.26-6.02-.43-2.28-.65-4.9-.65-7.8v-5.5c0-.55.45-1,1-1h8.89c.55,0,1,.45,1,1v6.2c0,3.17.26,5.46.77,6.78.41,1.06,1.15,1.53,2.39,1.53.86,0,1.48-.18,1.86-.52.4-.37.69-1.03.85-1.95.19-1.09.28-2.56.28-4.36,0-2.14-.45-4.12-1.34-5.88-.92-1.82-2.34-3.74-4.22-5.71l-4.54-4.68c-1.29-1.34-2.48-2.78-3.52-4.29-1.07-1.54-1.92-3.28-2.54-5.17-.62-1.9-.94-4.05-.94-6.39,0-3.34.42-6.22,1.25-8.56.87-2.45,2.36-4.34,4.45-5.61,2.04-1.25,4.83-1.88,8.29-1.88,2.61,0,4.81.42,6.54,1.23,1.77.84,3.17,2.08,4.17,3.7.96,1.56,1.65,3.47,2.04,5.67.38,2.14.58,4.6.58,7.33v3.82c0,.55-.45,1-1,1h-8.65c-.55,0-1-.45-1-1v-4.41c0-1.81-.1-3.32-.28-4.5-.17-1.04-.46-1.81-.87-2.29-.34-.39-.86-.58-1.59-.58s-1.37.16-1.8.46c-.42.3-.73.78-.94,1.47-.24.8-.36,1.88-.36,3.2,0,1.16.15,2.17.43,3,.29.83.74,1.64,1.35,2.41.66.84,1.49,1.79,2.46,2.84l5.08,5.5c2.48,2.67,4.45,5.5,5.84,8.4,1.41,2.95,2.13,6.27,2.13,9.88s-.42,7-1.24,9.59c-.86,2.71-2.33,4.8-4.38,6.21-2.03,1.39-4.79,2.1-8.2,2.1v-.02Z" class="st2"/><path d="M473.01,1600.22c2.47,0,4.51.38,6.11,1.14s2.85,1.87,3.75,3.33,1.53,3.23,1.91,5.32c.37,2.09.56,4.47.56,7.16v3.82h-8.65v-4.41c0-1.87-.1-3.42-.3-4.66s-.57-2.16-1.1-2.78-1.32-.93-2.35-.93-1.77.22-2.38.65c-.61.43-1.04,1.1-1.31,2s-.4,2.06-.4,3.48c0,1.28.16,2.39.49,3.33s.83,1.83,1.51,2.7c.68.86,1.52,1.83,2.52,2.91l5.08,5.5c2.43,2.61,4.32,5.33,5.67,8.16s2.03,5.97,2.03,9.45c0,3.69-.4,6.78-1.19,9.29s-2.12,4.4-3.99,5.69c-1.87,1.28-4.41,1.93-7.63,1.93-2.57,0-4.71-.4-6.42-1.21-1.72-.81-3.07-1.98-4.06-3.54-.99-1.55-1.7-3.44-2.12-5.67-.42-2.23-.63-4.77-.63-7.61v-5.5h8.89v6.2c0,3.31.28,5.69.84,7.14s1.67,2.17,3.33,2.17c1.12,0,1.97-.26,2.54-.79s.96-1.37,1.16-2.52c.2-1.16.3-2.67.3-4.53,0-2.31-.48-4.42-1.45-6.34-.97-1.91-2.43-3.9-4.39-5.95l-4.55-4.69c-1.26-1.31-2.4-2.7-3.41-4.17-1.02-1.47-1.82-3.11-2.42-4.92s-.89-3.83-.89-6.07c0-3.24.4-5.99,1.19-8.23s2.14-3.94,4.03-5.09c1.89-1.16,4.48-1.73,7.77-1.73M473.01,1598.22c-3.65,0-6.61.68-8.81,2.03-2.28,1.4-3.92,3.46-4.87,6.13-.87,2.44-1.3,5.44-1.3,8.89,0,2.44.33,4.7.99,6.7.65,1.98,1.55,3.81,2.67,5.43,1.07,1.55,2.29,3.04,3.62,4.42l4.55,4.69c1.8,1.89,3.17,3.73,4.04,5.46.82,1.62,1.24,3.45,1.24,5.43,0,1.75-.09,3.16-.27,4.19-.16.96-.43,1.29-.54,1.39-.07.06-.35.26-1.18.26-.94,0-1.24-.31-1.46-.89-.32-.83-.71-2.62-.71-6.42v-6.2c0-1.1-.9-2-2-2h-8.89c-1.1,0-2,.9-2,2v5.5c0,2.96.22,5.64.66,7.98.47,2.47,1.27,4.62,2.4,6.38,1.19,1.87,2.84,3.3,4.9,4.27,1.98.93,4.42,1.4,7.27,1.4,3.62,0,6.57-.77,8.76-2.28,2.23-1.54,3.84-3.8,4.76-6.73.85-2.69,1.28-6.02,1.28-9.9s-.75-7.23-2.23-10.32c-1.43-2.99-3.46-5.9-6.01-8.65l-4.52-4.89c.35.3.81.48,1.3.48h8.65c1.1,0,2-.9,2-2v-3.82c0-2.79-.2-5.32-.59-7.51-.42-2.33-1.15-4.35-2.17-6.02-1.1-1.79-2.64-3.16-4.59-4.08-1.86-.88-4.2-1.33-6.97-1.33h.02ZM475.07,1622.16l-.24-.26c-.97-1.04-1.78-1.97-2.42-2.78-.54-.69-.94-1.4-1.19-2.12s-.38-1.61-.38-2.66c0-1.22.11-2.2.32-2.91.14-.46.32-.77.56-.94.32-.23.84-.28,1.22-.28.63,0,.78.18.83.24.16.19.46.66.64,1.79.18,1.13.27,2.59.27,4.34v4.41c0,.44.14.85.38,1.18h.01Z" class="st0"/></g><g><path d="M526.68,1663.55c-.55,0-1-.45-1-1v-22.96l.16-9.41-6.12,32.28c-.09.47-.5.81-.98.81h-7.46c-.48,0-.89-.34-.98-.81l-6.48-32.79.16,9.9v22.98c0,.55-.45,1-1,1h-8.3c-.55,0-1-.45-1-1v-61.61c0-.55.45-1,1-1h11.66c.48,0,.89.34.98.81l7.74,39.81,7.27-39.8c.09-.48.5-.82.98-.82h11.73c.55,0,1,.45,1,1v61.61c0,.55-.45,1-1,1h-8.37.01Z" class="st2"/><path d="M535.05,1600.94v61.61h-8.37v-22.96l.35-21.07-8.3,43.76h-7.46l-8.65-43.76.35,21.07v22.96h-8.3v-61.61h11.66l8.75,45.02,8.23-45.02h11.73M535.05,1598.94h-11.73c-.97,0-1.79.69-1.97,1.64l-6.32,34.58-6.73-34.6c-.18-.94-1.01-1.62-1.96-1.62h-11.66c-1.1,0-2,.9-2,2v61.61c0,1.1.9,2,2,2h8.3c1.1,0,2-.9,2-2v-21.83l4.33,21.93c.19.94,1.01,1.61,1.96,1.61h7.46c.96,0,1.79-.68,1.96-1.63l3.98-21v20.91c0,1.1.9,2,2,2h8.37c1.1,0,2-.9,2-2v-61.61c0-1.1-.9-2-2-2h.01Z" class="st0"/></g></g><g><g><path d="M208.39,1780.7l-.25-.05c-2.41-.49-5.6-4.54-5.6-7.1v-.54l.22-.49c3.74-8.28,11.15-21.32,22.04-38.76-1.01-1.37-1.7-2.88-2.02-4.44-.25-1.08-.06-2.14.54-2.99.47-.66,1.4-1.49,3.17-1.67h.24c.92-.01,2.02.64,2.98,1.39,4.16-6.53,8.44-13.04,12.38-18.97-1.02-.28-1.86-.88-2.4-1.75-.7-1.12-.79-2.56-.24-3.66l.56-1.12,1.23-.22c2.46-.44,6.31-3.15,10.33-7.25,6.98-10.33,12.09-17.31,14.61-20.48.52-.82,1.34-1.37,2.27-1.51.29-.07.59-.11.9-.11,3.28,0,6.61,4.23,6.61,8.37v.6l-.27.53c-3.4,6.7-8.41,12.99-14.5,18.19-5.12,7.48-12.79,18.83-20.66,30.88l-1.5,2.3c1.17.15,2.46.22,3.81.22,2.06,0,4.19-.22,6.35-.65,29.28-5.27,55.29-32.2,55.29-49.74,0-1.09-.1-2.08-.3-3.11-2.17-9.94-20.97-15.33-37.56-15.33-.99,0-1.96.02-2.91.06-22.64.91-43.84,9.8-56.73,23.79-7.6,8.33-9.2,15.53-9.2,20.1,0,1.07.09,2.04.29,3.05,1.32,5.17,5.69,8.26,11.71,8.26,1.66,0,3.37-.25,4.83-.7.39-.11.73-.16,1.07-.16,3.1,0,5.9,3.74,6.27,6.26.31,2.07-.72,3.78-2.63,4.36-2.72.71-4.95,1.03-7.11,1.03-11.25,0-21.3-8.48-23.9-20.17-.35-1.56-.52-3.21-.52-5.18,0-8.36,3.87-17.08,11.2-25.23,14.41-15.43,39.46-25.71,63.86-26.22.68-.01,1.37-.02,2.05-.02,20.84,0,44.61,7.08,48.82,26.94.34,1.38.52,3.02.52,4.93,0,10.97-7.13,23.92-19.57,35.52-11.95,11.15-26.96,19.17-40.15,21.45-3.11.5-5.9.74-8.54.74-4.59,0-8.69-.65-12.22-1.93-7.9,12.76-15.28,25.44-18.61,31.99l-.06.11c-2.32,4.06-2.42,4.95-2.47,5.43v.1l-.03.1c-.34,1.72-1.89,2.83-3.96,2.83h-.25v.02Z" class="st2"/><path d="M264.92,1654.99c21.79,0,42.66,7.39,46.37,24.95.34,1.4.46,2.9.46,4.41,0,21.81-30.86,49.88-57.65,54.51-2.9.46-5.57.7-8.12.7-5.34,0-9.74-.93-13.22-2.55-7.65,12.29-16.01,26.45-19.83,33.98-2.32,4.06-2.67,5.34-2.79,6.38-.11.58-.81.81-1.51.81-1.16-.24-3.6-3.14-3.6-4.65,4.29-9.51,13.11-24.47,22.85-40.02-1.39-1.39-2.32-3.01-2.67-4.75-.23-.94.35-1.51,1.51-1.62.46,0,2.44,1.62,3.48,2.79,5.57-8.82,11.48-17.76,16.82-25.76-1.39.35-2.55.58-3.59.58-1.86,0-1.97-1.5-1.74-1.96,3.25-.59,7.54-3.71,11.83-8.12,6.49-9.62,11.95-17.17,14.73-20.65.12-.24.35-.46.69-.46.13-.05.27-.07.41-.07,1.59,0,4.11,2.79,4.11,5.87-3.71,7.31-8.93,13.22-14.15,17.63-6.27,9.16-13.69,20.18-20.88,31.2l-3.48,5.34c2.09.7,4.87,1.05,7.89,1.05,2.21,0,4.52-.24,6.84-.7,30.28-5.45,57.3-33.63,57.3-52.19,0-1.28-.12-2.44-.35-3.6-2.62-12.01-23.54-17.34-40.01-17.35-1.03,0-2.03.02-3.02.06-20.18.81-43.5,8.35-58.46,24.59-7.19,7.89-9.86,15.54-9.86,21.8,0,1.28.12,2.44.35,3.6,1.62,6.5,7.07,10.21,14.15,10.21,1.74,0,3.71-.24,5.57-.81.11-.03.22-.04.33-.04,2.13,0,5.45,4.96,2.91,5.73-2.2.58-4.29.93-6.38.93-10.32,0-19.13-7.77-21.46-18.21-.34-1.51-.46-3.02-.46-4.64,0-7.2,3.25-15.43,10.55-23.56,14.62-15.66,39.9-24.93,62.06-25.4.67-.01,1.33-.02,2-.02M264.92,1649.99c-.7,0-1.4,0-2.1.02-25.05.52-50.8,11.12-65.61,26.98l-.03.03-.03.03c-7.74,8.61-11.84,17.91-11.84,26.9,0,2.16.19,3.99.59,5.75,2.85,12.79,13.93,22.1,26.33,22.1,2.38,0,4.81-.35,7.65-1.09l.1-.02.09-.03c.15-.04.29-.09.43-.15.3,1.13.75,2.22,1.34,3.27-10.49,16.86-17.67,29.54-21.36,37.71l-.44.98v1.08c0,3.81,3.98,8.81,7.6,9.55l.49.1h.5c3.26,0,5.84-1.95,6.41-4.85l.04-.2.02-.2c.04-.32.36-1.32,2.16-4.47l.06-.11.06-.11c3.15-6.22,10-18.02,17.48-30.14,3.33.96,7.05,1.45,11.12,1.45,2.78,0,5.7-.25,8.91-.76h.06c13.65-2.37,29.14-10.63,41.43-22.1,12.94-12.08,20.37-25.69,20.37-37.35,0-2.08-.19-3.89-.59-5.52-2.07-9.67-8.68-17.43-19.11-22.45-8.68-4.18-19.8-6.39-32.13-6.39h0ZM200.53,1709.71c-.16-.82-.23-1.62-.23-2.5,0-4.13,1.48-10.68,8.55-18.43,12.43-13.49,32.98-22.08,54.97-22.97.92-.04,1.86-.06,2.81-.06,15.47,0,33.27,5.11,35.12,13.37.17.85.24,1.67.24,2.57,0,14.89-23.83,41.99-53.19,47.27h-.05l-.05.02c-1.77.35-3.51.55-5.2.59,7.44-11.36,14.64-22,19.56-29.2,6.22-5.37,11.35-11.84,14.85-18.74l.54-1.07v-1.2c0-5.59-4.43-10.87-9.11-10.87-.47,0-.94.05-1.39.16-1.55.27-2.93,1.17-3.82,2.5-3.21,4.04-8.72,11.76-14.52,20.35-4.24,4.29-7.4,6.12-8.83,6.38l-2.47.44-1.12,2.24c-.93,1.86-.79,4.25.35,6.09.28.46.62.87.99,1.23-3.11,4.7-6.4,9.71-9.64,14.76-.72-.31-1.46-.49-2.19-.49h-.24l-.24.02c-.71.07-1.38.22-1.99.45-.54-2.01-1.74-3.59-2.47-4.4-1.78-1.99-3.94-3.08-6.08-3.08-.57,0-1.14.08-1.68.23l-.07.02-.07.02c-1.22.38-2.67.59-4.09.59-2.85,0-7.84-.82-9.27-6.31h0l.03.02Z" class="st0"/></g><g><path d="M302.83,1747.65c-1.33,0-2.56-.68-3.45-1.92-1.24-1.72-1.76-4.41-1.18-6.13l.03-.09c4.53-11.97,30.81-56.78,36.34-65.01,1.1-1.68,2.53-1.93,3.29-1.93,1.79,0,3.45,1.32,4.55,3.63.5,1.04,1.49,3.58.27,5.37l-1.69,2.83c-5.05,8.43-13.02,21.73-21.46,37.25,4.47-2.27,9.53-4.22,13.45-4.22.41,0,.81.02,1.18.07,1.07.15,2.52.71,3.61,2.58,1.45,2.5,1.62,6.35.86,8.26l-.04.1-.05.09c-.48.96-1.43,2.95-2.31,4.88,5.29-1.79,14.29-6.68,18.24-9.43.8-.54,1.6-.79,2.43-.79,2.02,0,3.7,1.52,4.5,4.07.65,2.07.73,4.7-.96,5.97-5.19,4.16-16.44,11-24.73,11.76-.31.03-.62.04-.92.04h0c-2.64,0-5.04-1.09-6.76-3.08-1.94-2.25-2.79-5.35-2.33-8.51.06-.49.16-1.22.43-2.3-7.3,3.38-14.46,8.55-19.88,14.43l-.26.38-.16.16s-.07.08-.11.13c-.35.41-1.14,1.35-2.54,1.42-.12,0-.23.01-.34.01v-.02Z" class="st2"/><path d="M337.85,1675.06c1.74,0,3.48,4.18,2.73,5.12-5.68,9.51-16.47,27.26-27.49,48.14,5.91-4.05,14.7-8.41,19.87-8.41.31,0,.61.02.9.05,2.55.35,3.13,5.69,2.44,7.42-.81,1.62-3.25,6.73-4.06,9.05.25.09.57.13.93.13,4.75,0,18.1-7.34,22.74-10.57.36-.24.69-.34,1-.34,2.1,0,3.03,4.86,2.01,5.57-4.76,3.83-15.77,10.55-23.43,11.25-.24.02-.47.03-.7.03-4.47,0-7.27-4.21-6.61-8.73.12-.93.35-2.9,2.21-7.07-10.09,3.48-19.72,10.32-26.1,17.28l-.23.34c-.34.35-.58.81-1.04.81-.06,0-.12.01-.17.01-1.75,0-2.71-3.42-2.26-4.76,4.52-11.95,30.86-56.72,36.07-64.5.38-.58.8-.82,1.21-.82M337.85,1670.06c-2.14,0-4.09,1.11-5.38,3.05-4.86,7.25-31.69,52.55-36.59,65.5l-.04.09-.03.1c-.94,2.81.06,6.35,1.53,8.38,1.36,1.88,3.35,2.96,5.48,2.96.17,0,.34,0,.51-.02,1.64-.09,3.08-.87,4.29-2.31l.03-.04.26-.27.26-.38.02-.03c4.17-4.49,9.39-8.53,14.88-11.62.08,3.02,1.14,5.87,3.05,8.08,2.2,2.54,5.27,3.94,8.65,3.94.39,0,.78-.02,1.17-.06,8.8-.8,20.58-7.92,26.01-12.27,2.7-2.06,2.72-5.82,1.81-8.7-1.13-3.59-3.77-5.82-6.88-5.82-1.31,0-2.62.41-3.78,1.19l-.04.03-.04.03c-3.31,2.3-7.89,4.82-11.88,6.7.84-2.87.33-7.09-1.24-9.8-1.25-2.14-3.16-3.48-5.38-3.79h-.1c-.47-.06-.96-.09-1.47-.09-1.85,0-4.51.46-7.75,1.56,7.09-12.74,13.58-23.57,17.92-30.81l1.66-2.77c1.33-2.02,1.3-4.82-.13-7.79-1.54-3.21-4.02-5.05-6.81-5.05h0Z" class="st0"/></g><g><path d="M358.82,1748.22c-6.07,0-10.16-6.63-10.16-12.82,0-7.89,8.88-16.07,14.23-16.53h.06c.82-.96,2.01-1.52,3.4-1.52,2.84,0,5.98,1.99,7.58,4.68,2.34.83,4.92,1.23,7.85,1.23s5.69-.33,8.48-.97c.32-.09.73-.14,1.14-.14,2.48,0,4.5,2.03,5.01,5.05.44,2.58-.47,4.68-2.32,5.33l-.14.05-.15.03c-3.34.75-6.63,1.11-10.05,1.11-2.99,0-5.95-.3-8.99-.9-1.9,6.7-9.01,15.4-15.95,15.4h0ZM365.46,1729.43c-3.59,1.96-6.59,5.88-7.31,7.9,2.65-.64,5.83-4.59,7.31-7.9Z" class="st2"/><path d="M366.36,1719.85c2.2,0,4.87,1.97,5.8,4.17,3.13,1.28,6.38,1.74,9.63,1.74,3.01,0,6.03-.34,9.04-1.04.2-.05.39-.08.58-.08,2.57,0,3.38,4.99,1.86,5.53-3.13.7-6.26,1.05-9.51,1.05-3.59,0-7.19-.46-10.9-1.4l-.11.24c-.35,5.56-7.54,15.66-13.92,15.66-4.64,0-7.65-5.57-7.65-10.32,0-6.61,7.89-13.69,11.95-14.03.46,0,.93.35,1.16.69.11-1.28.81-2.2,2.09-2.2M357.43,1739.92c4.87,0,10.09-7.42,11.14-11.83-1.04-.58-1.74-1.28-2.32-1.74-7.31,2.55-14.27,13.57-8.82,13.57M366.36,1714.85c-1.78,0-3.36.61-4.58,1.66-6.38,1.24-15.62,9.78-15.62,18.89,0,3.4,1.07,6.95,2.94,9.73,2.39,3.55,5.93,5.59,9.72,5.59,5.99,0,10.77-4.75,13.09-7.57,1.96-2.39,3.51-4.99,4.52-7.49,2.46.38,4.88.57,7.33.57,3.61,0,7.08-.38,10.6-1.17l.3-.07.29-.1c3.01-1.07,4.6-4.33,3.95-8.11-.72-4.2-3.8-7.13-7.48-7.13-.59,0-1.18.07-1.76.22-2.58.59-5.22.9-7.85.9-2.31,0-4.37-.28-6.24-.84-2.16-3-5.77-5.07-9.19-5.07h-.02Z" class="st0"/></g><g><path d="M368.52,1782.57c-1.08,0-2.15-.48-3-1.36-1.4-1.43-2.17-3.78-2.1-6.44v-.38l.13-.36c4.48-13.08,16.29-36.63,30.89-61.54.04-.85-.19-1.52-.72-2.14-1.22-1.43-4.54-3.2-13.39-3.52l-.55-.02c-.3,0-.56-.05-.76-.11-2.98-.11-4.83-2.93-4.9-5.66-.07-2.44,1.37-4.22,3.5-4.33,7.33-.59,17.53-1.25,27.47-1.79,4.22-6.68,8.33-12.59,11.1-16.52l.11-.15.13-.14c1.26-1.32,2.52-1.6,3.35-1.6,1.24,0,2.41.6,3.29,1.7,1.31,1.64,1.99,4.48,1.55,6.46l-.11.47-.27.4c-1.95,2.84-3.92,5.81-5.87,8.87,4.59-.17,9.44-.25,14.48-.25,5.84,0,11.78.09,15.74.71.34.04.61.14.8.22,2.51.7,3.93,2.76,3.62,5.3-.23,1.9-1.65,4.7-3.95,4.71h-.59l-.14-.06c-.37-.03-.74-.04-1.12-.04-2.46,0-4.6.53-6.33.96-.8.2-1.5.37-2.13.47l-.17.05h-.45c-.91,0-2.02-.48-2.6-1.81-1.96-.05-3.91-.05-5.82-.05-6.48,0-12.5.1-17.94.3-14.88,24.38-33.39,57.81-39.56,74.84-.7,1.79-2.07,2.83-3.69,2.83v-.02Z" class="st2"/><path d="M419.77,1679.01c1.76,0,2.77,3.46,2.4,5.11-2.55,3.71-5.45,8.12-8.47,13,6.73-.35,13.34-.46,19.14-.46,6.38,0,11.83.11,15.43.69.11,0,.23.12.35.12,3.57.89,1.23,5.12.43,5.12-.03,0-.06,0-.09-.02-.6-.06-1.19-.08-1.76-.08-4.05,0-7.3,1.27-9.03,1.48h-.06c-.32,0-.52-.87-.52-1.76-2.67-.11-5.34-.11-7.89-.11-6.96,0-13.45.11-19.37.35-15.43,25.17-34.22,59.15-40.48,76.44-.31.81-.81,1.18-1.34,1.18-1.24,0-2.68-2-2.6-5.24,4.76-13.91,17.63-38.86,30.97-61.59v-.11c1.04-8.7-14.62-8.7-17.05-8.82-.23,0-.35-.11-.46-.11h-.19c-2.64,0-3.48-4.88-1.44-4.99,7.19-.58,17.75-1.28,28.76-1.86,4.06-6.49,8.12-12.41,11.72-17.51.56-.58,1.08-.83,1.54-.83M403.15,1702.8l-10.32.69c2.78,1.28,5.1,3.25,6.03,6.38,1.39-2.44,2.9-4.76,4.29-7.07M419.77,1674.01c-1.32,0-3.28.41-5.15,2.37l-.26.27-.22.31c-2.64,3.74-6.47,9.26-10.48,15.54-9.51.52-19.17,1.16-26.27,1.73-3.46.23-5.88,3.12-5.78,6.89.13,4.81,3.58,7.78,7.02,8.07.29.06.64.11,1.02.13.16,0,.35.01.58.02,8.92.32,11.12,2.1,11.58,2.64,0,0,0,.01.01.02-11.46,19.64-25.31,45.64-30.65,61.23l-.25.73-.02.77c-.08,3.33.94,6.33,2.81,8.25,1.33,1.36,3.03,2.12,4.79,2.12,2.65,0,4.95-1.67,6-4.36l.02-.06.02-.06c6.02-16.61,23.95-49.08,38.65-73.24,5.05-.17,10.59-.25,16.5-.25,1.45,0,2.94,0,4.42.02,1.19,1.39,2.82,1.85,3.99,1.85.29,0,.58-.02.86-.07.79-.11,1.58-.31,2.49-.53,1.6-.39,3.58-.89,5.73-.89.35,0,.7.01,1.05.04.26.04.53.06.8.06,2.71,0,5.89-2.42,6.44-6.9.46-3.73-1.65-6.89-5.27-7.97-.33-.13-.77-.27-1.3-.34-4.13-.64-10.16-.73-16.08-.73-3.35,0-6.62.04-9.79.11,1.08-1.64,2.16-3.25,3.24-4.81l.55-.8.21-.94c.61-2.73-.25-6.33-2.04-8.57-1.36-1.7-3.22-2.64-5.24-2.64h.02Z" class="st0"/></g><g><path d="M412.33,1746.88c-.4,0-.81-.02-1.21-.07-5.71-.75-9.34-6.72-9.18-11.84,0-7.15,5.57-13.29,11.08-16.17l.17-.09.18-.06c.41-.14.85-.21,1.31-.21.24,0,.49.02.74.06.79-.74,1.91-1.14,3.28-1.14.62,0,1.14.14,1.6.27l.27.07.07.02c2.61.87,4.4,2.28,5.34,4.21,1.63.41,5.03.88,12.08.88,9.56,0,20.83-.9,24.13-1.67.3-.08.67-.13,1.04-.13,2.83,0,4.77,2.67,5.22,5.31.41,2.41-.54,4.4-2.43,5.06l-.11.04-.12.03c-5.19,1.27-17.12,1.93-26.23,1.93-3.73,0-8.43-.12-11.89-.6-1.8,6.93-8.23,14.11-15.36,14.11h.02ZM417.74,1728.94c-2.55,1.44-5.56,4.87-6.17,7.44,2.47-.64,5.14-4,6.4-7.26-.08-.06-.16-.12-.23-.18h0Z" class="st2"/><path d="M418.71,1719.85c.34,0,.69.11,1.16.24,2.44.81,3.71,2.09,4.18,3.71v.11c2.43,1.04,7.89,1.39,14.03,1.39,9.74,0,21.23-.93,24.7-1.74.16-.04.32-.06.47-.06,2.39,0,3.82,4.86,1.97,5.51-4.76,1.16-16.12,1.86-25.63,1.86-6.38,0-11.48-.35-13.92-1.05-.44,6.11-6.41,14.55-13.33,14.55-.31,0-.62-.02-.94-.05-4.41-.58-7.07-5.45-6.96-9.27,0-5.69,4.41-11.25,9.74-14.03.16-.05.33-.08.5-.08.6,0,1.28.27,1.81.54l.12.11c.11-1.28.81-1.74,2.09-1.74M410.81,1738.99c4.87-.11,9.05-6.49,10.09-10.9-1.51-.93-2.43-1.74-3.01-2.44l-.12.35-.46.35c-3.6,1.62-8.35,6.84-8.35,10.9,0,1.05.47,1.74,1.86,1.74M418.71,1714.85c-1.56,0-2.94.38-4.05,1.08-.72,0-1.42.12-2.08.34l-.36.12-.34.18c-7.41,3.87-12.39,11.25-12.43,18.39-.15,6.17,4.11,13.37,11.31,14.31h.1c.49.06.99.09,1.49.09,7.66,0,14.43-6.66,17.12-13.89,2.7.26,6.09.38,10.13.38,8.97,0,21.18-.63,26.82-2l.23-.06.23-.08c3.05-1.06,4.68-4.21,4.07-7.84-.62-3.68-3.46-7.4-7.69-7.4-.55,0-1.1.07-1.65.2-2.8.64-13.54,1.6-23.53,1.6-5.76,0-8.87-.32-10.49-.6-1.12-1.66-3-3.31-6.14-4.36l-.15-.05-.15-.04-.18-.05c-.52-.14-1.3-.35-2.26-.35h0v.03Z" class="st0"/></g></g></svg>