<svg xmlns="http://www.w3.org/2000/svg" width="600" height="1800" viewBox="0 0 600 1800"><defs><mask id="holes"><rect width="100%" height="100%" fill="#fff"/><rect width="500" height="375" x="50" y="50" fill="#000"/><rect width="500" height="375" x="50" y="475" fill="#000"/><rect width="500" height="375" x="50" y="900" fill="#000"/><rect width="500" height="375" x="50" y="1325" fill="#000"/></mask></defs><path fill="#eee" fill-rule="evenodd" d="M0,0H600V1800H0Z M50,50V425H550V50Z M50,475V850H550V475Z M50,900V1275H550V900Z M50,1325V1700H550V1325Z"/><rect width="500" height="375" x="50" y="50" fill="none" stroke="#999" stroke-dasharray="10 10" stroke-width="4"/><rect width="500" height="375" x="50" y="475" fill="none" stroke="#999" stroke-dasharray="10 10" stroke-width="4"/><rect width="500" height="375" x="50" y="900" fill="none" stroke="#999" stroke-dasharray="10 10" stroke-width="4"/><rect width="500" height="375" x="50" y="1325" fill="none" stroke="#999" stroke-dasharray="10 10" stroke-width="4"/><text x="300" y="1760" fill="#999" font-family="sans-serif" font-size="30" font-weight="bold" text-anchor="middle">TEMPLATE 1x4</text></svg>